<?xml version="1.0" encoding="utf-8"?>
<!-- Generator: Adobe Illustrator 17.1.0, SVG Export Plug-In . SVG Version: 6.00 Build 0)  -->
<!DOCTYPE svg PUBLIC "-//W3C//DTD SVG 1.1//EN" "http://www.w3.org/Graphics/SVG/1.1/DTD/svg11.dtd">
<svg version="1.1" id="Calque_1" xmlns="http://www.w3.org/2000/svg" xmlns:xlink="http://www.w3.org/1999/xlink" x="0px" y="0px"
	 viewBox="0 0 500 364.6" enable-background="new 0 0 500 364.6" xml:space="preserve">
<g>
	<path fill="#333333" d="M-0.5,3h88.7c23.8,0,41.2,5.8,51.9,17.5c10.8,11.7,16.2,30.7,16.2,57.1v14.5c0,31.2-11.2,49.9-33.5,55.9
		c13.7,3.6,23.3,11.8,28.9,24.7c5.6,12.9,8.4,30.1,8.4,51.4c0,34.8-5.2,61.1-15.6,79c-10.4,17.9-29.2,26.8-56.3,26.8H-0.5V3z
		 M76.8,126c5.6,0,9.4-2.1,11.4-6.3c2-4.2,3-10.1,3-17.7V69.3c0-10.7-4.7-16-14.1-16H63.5V126H76.8z M95.4,248.1v-40.7
		c0-9.9-1.5-17.4-4.4-22.4c-2.9-5.1-8.1-7.6-15.4-7.6H63.5v94.8l6.5,0.4C86.9,272.5,95.4,264.4,95.4,248.1z"/>
	<path fill="#6C63FF" d="M210,329.9V65.8h-38.8V3h143.1v62.8h-38.8v264.1H210z"/>
	<path fill="#333333" d="M425,330.3c-9.6,1.8-15.1,2.7-16.4,2.7c-26.4,0-46.4-7.5-60.1-22.6c-13.7-15.1-20.5-37.2-20.5-66.4V86
		c0-28.2,6.9-49.5,20.7-64.1C362.5,7.3,382.5,0,408.6,0c26.1,0,46.1,7.3,59.9,21.9c13.8,14.6,20.7,36,20.7,64.1v157.9
		c0,26.9-6.1,48.2-18.3,63.9l28.2,17.9l-22.1,38.8L425,330.3z M420.8,263.7c1.8-6.1,2.7-13.9,2.7-23.6v-153c0-8.4-1.1-15-3.2-19.8
		c-2.2-4.8-6.2-7.2-12-7.2c-10.4,0-15.6,8.9-15.6,26.6v154.5c0,9.1,1,16.7,3,22.6c2,6,6.3,8.9,12.9,8.9
		C414.9,272.9,419,269.8,420.8,263.7z"/>
</g>
</svg>
