<?xml version="1.0" encoding="utf-8"?>
<!-- Generator: Adobe Illustrator 17.1.0, SVG Export Plug-In . SVG Version: 6.00 Build 0)  -->
<!DOCTYPE svg PUBLIC "-//W3C//DTD SVG 1.1//EN" "http://www.w3.org/Graphics/SVG/1.1/DTD/svg11.dtd">
<svg version="1.1" id="Calque_1" xmlns="http://www.w3.org/2000/svg" xmlns:xlink="http://www.w3.org/1999/xlink" x="0px" y="0px"
	 viewBox="32.2 216 436.1 66.7" enable-background="new 32.2 216 436.1 66.7" xml:space="preserve">
<g>
	<g>
		<path fill="#333333" d="M32.2,218.9h15.6c4.2,0,7.3,1,9.2,3.1s2.8,5.4,2.8,10.1v2.5c0,5.5-2,8.8-5.9,9.9c2.4,0.6,4.1,2.1,5.1,4.4
			c1,2.3,1.5,5.3,1.5,9.1c0,6.1-0.9,10.8-2.7,13.9c-1.8,3.2-5.1,4.7-9.9,4.7H32.2V218.9z M45.9,240.6c1,0,1.7-0.4,2-1.1
			c0.4-0.7,0.5-1.8,0.5-3.1v-5.8c0-1.9-0.8-2.8-2.5-2.8h-2.4v12.8L45.9,240.6L45.9,240.6z M49.1,262.1V255c0-1.7-0.3-3.1-0.8-4
			s-1.4-1.3-2.7-1.3h-2.1v16.7l1.1,0.1C47.6,266.4,49.1,265,49.1,262.1z"/>
		<path fill="#333333" d="M65.3,273.3c-1.4-2.5-2.1-6.1-2.1-10.8c0-3.8,0.5-6.8,1.5-8.8c1-2.1,2.4-3.6,4.2-4.5c1.8-1,4.5-2,8.2-3.2
			l3.2-1.1v-0.1v-4.9c0-1.3-0.3-2.3-0.8-3s-1.1-1-1.8-1c-0.6,0-1.2,0.3-1.6,0.9c-0.5,0.6-0.7,1.4-0.7,2.3v3H63.9v-1.6
			c0-4.8,1.1-8.3,3.4-10.3c2.3-2.1,5.9-3.1,11-3.1c4.1,0,7.4,1.1,9.9,3.2c2.5,2.1,3.8,5.1,3.8,9v37.4H80.4v-5.8
			c-0.6,2-1.5,3.6-2.8,4.7s-2.8,1.7-4.5,1.7C69.3,277.1,66.7,275.8,65.3,273.3z M79.6,266.9c0.4-0.7,0.6-1.6,0.6-2.7v-13.7
			c-1.7,0.7-3,1.5-3.9,2.5c-0.8,1-1.2,2.5-1.2,4.3v6.3c0,2.9,0.9,4.4,2.6,4.4C78.6,268,79.2,267.6,79.6,266.9z"/>
		<path fill="#333333" d="M96.5,276.5v-57.9h11.9v57.9H96.5z"/>
		<path fill="#333333" d="M114.3,273.3c-1.4-2.5-2.1-6.1-2.1-10.8c0-3.8,0.5-6.8,1.5-8.8c1-2.1,2.4-3.6,4.2-4.5c1.8-1,4.5-2,8.2-3.2
			l3.2-1.1v-0.1v-4.9c0-1.3-0.3-2.3-0.8-3s-1.1-1-1.8-1c-0.6,0-1.2,0.3-1.6,0.9c-0.5,0.6-0.7,1.4-0.7,2.3v3H113v-1.6
			c0-4.8,1.1-8.3,3.4-10.3c2.3-2.1,5.9-3.1,11-3.1c4.1,0,7.4,1.1,9.9,3.2c2.5,2.1,3.8,5.1,3.8,9v37.4h-11.7v-5.8
			c-0.6,2-1.5,3.6-2.8,4.7s-2.8,1.7-4.5,1.7C118.3,277.1,115.7,275.8,114.3,273.3z M128.6,266.9c0.4-0.7,0.6-1.6,0.6-2.7v-13.7
			c-1.7,0.7-3,1.5-3.9,2.5c-0.8,1-1.2,2.5-1.2,4.3v6.3c0,2.9,0.9,4.4,2.6,4.4C127.6,268,128.2,267.6,128.6,266.9z"/>
		<path fill="#333333" d="M145.5,227.5h11.7v6.2c0.5-2,1.3-3.6,2.5-4.9c1.2-1.3,2.8-1.9,4.8-1.9c3.3,0,5.8,1,7.3,3.1
			c1.6,2,2.4,4.9,2.4,8.7v37.9h-11.5v-36.7c0-1.1-0.2-2-0.6-2.7c-0.4-0.8-1.1-1.1-2-1.1c-1.2,0-2,0.5-2.4,1.6s-0.6,2.6-0.6,4.4v34.5
			h-11.7v-49.1H145.5z"/>
		<path fill="#333333" d="M182.1,273c-2.4-2.7-3.6-6.9-3.6-12.5v-15.2c0-4.2,0.5-7.7,1.4-10.4s2.5-4.7,4.6-6c2.2-1.3,5.2-2,9-2
			c4.2,0,7.6,1.1,10.3,3.3c2.6,2.2,4,5.3,4,9.2v7.5h-11.9V240c0-1.3-0.2-2.3-0.5-3c-0.4-0.7-1.1-1-2.1-1c-1.9,0-2.9,1.4-2.9,4.1
			v23.8c0,1.1,0.2,2.1,0.7,2.8c0.5,0.8,1.2,1.2,2.1,1.2s1.6-0.4,2.1-1.1s0.7-1.7,0.6-3l-0.1-8.2h11.9v8.6c0,4-1.3,7.2-3.9,9.5
			c-2.6,2.3-6,3.5-10.2,3.5C188.4,277.1,184.5,275.7,182.1,273z"/>
		<path fill="#333333" d="M214.8,272.9c-2.2-2.8-3.3-6.9-3.3-12.4v-19.7c0-4.5,1.3-8,3.9-10.3c2.6-2.4,6.2-3.6,10.9-3.6
			c9.4,0,14.1,4.6,14.1,13.9v3.6c0,3.6,0,6.5-0.1,8.7h-17v9.5c0,1.7,0.2,3,0.5,4c0.4,1,1.1,1.4,2.3,1.4c0.9,0,1.5-0.3,1.9-0.8
			s0.6-1.2,0.7-1.8c0.1-0.7,0.1-1.7,0.1-3v-4.8h11.7v2.8c0,5.7-1.1,9.9-3.3,12.6s-6,4.1-11.4,4.1C220.6,277.1,217,275.7,214.8,272.9
			z M228.7,247.2v-6.3c0-3.5-0.9-5.3-2.6-5.3c-2,0-3,1.8-3,5.3v6.3H228.7z"/>
	</g>
	<g>
		<path fill="#6C63FF" d="M249.8,276.5V230H243v-11.1h25.2V230h-6.8v46.5H249.8z"/>
		<path fill="#6C63FF" d="M269.3,261.9v-19.7c0-4.6,1.3-8.3,3.9-11.1c2.6-2.7,6.2-4.1,10.8-4.1c4.6,0,8.1,1.4,10.8,4.1
			c2.6,2.7,3.9,6.4,3.9,11.1v19.7c0,10.1-4.9,15.2-14.7,15.2C274.2,277.1,269.3,272,269.3,261.9z M286.1,267
			c0.4-0.7,0.7-1.6,0.7-2.7v-24c0-2.9-0.9-4.3-2.7-4.3c-1.8,0-2.7,1.4-2.7,4.3v24c0,1.2,0.2,2.1,0.7,2.7c0.4,0.7,1.1,1,2.1,1
			C284.9,268,285.6,267.7,286.1,267z"/>
		<path fill="#6C63FF" d="M303,227.5h11.7v6.2c0.5-2,1.3-3.6,2.5-4.9c1.2-1.3,2.8-1.9,4.8-1.9c3.3,0,5.8,1,7.3,3.1
			c1.6,2,2.4,4.9,2.4,8.7v37.9h-11.5v-36.7c0-1.1-0.2-2-0.6-2.7c-0.4-0.8-1.1-1.1-2-1.1c-1.2,0-2,0.5-2.4,1.6s-0.6,2.6-0.6,4.4v34.5
			H303V227.5z"/>
	</g>
	<g>
		<path fill="#333333" d="M353,276.6c-1.7,0.3-2.7,0.5-2.9,0.5c-4.6,0-8.2-1.3-10.6-4s-3.6-6.6-3.6-11.7v-27.8c0-5,1.2-8.7,3.7-11.3
			c2.4-2.6,6-3.9,10.6-3.9s8.1,1.3,10.6,3.9c2.4,2.6,3.7,6.3,3.7,11.3v27.8c0,4.7-1.1,8.5-3.2,11.3l5,3.2l-3.9,6.8L353,276.6z
			 M352.2,264.9c0.3-1.1,0.5-2.5,0.5-4.2v-27c0-1.5-0.2-2.6-0.6-3.5c-0.4-0.8-1.1-1.3-2.1-1.3c-1.8,0-2.7,1.6-2.7,4.7v27.2
			c0,1.6,0.2,2.9,0.5,4c0.4,1.1,1.1,1.6,2.3,1.6C351.2,266.5,351.9,265.9,352.2,264.9z"/>
		<path fill="#333333" d="M371.5,273.8c-1.4-2.2-2-5.5-2-9.8v-36.5h11.8v34.2c0,0.3,0,1.2,0,2.5s0.2,2.3,0.6,2.9s1.1,0.8,2,0.8
			c1.2,0,2-0.5,2.3-1.5s0.5-2.4,0.5-4.3v-0.4l0.1-34.2h11.7v49.1h-11.7v-5.2c-0.8,2.1-1.7,3.5-2.8,4.4c-1.1,0.9-2.7,1.3-4.8,1.3
			C375.4,277.1,372.9,276,371.5,273.8z"/>
		<path fill="#333333" d="M403,224.2V216h11.7v8.2H403z M403,276.5v-49.1h11.7v49.1H403z"/>
		<path fill="#333333" d="M417.9,276.5v-7.2l12.2-32.6h-11.7v-9.3h23.8v8l-11.5,32.3h11.7v8.8L417.9,276.5L417.9,276.5z"/>
		<path fill="#333333" d="M443.8,276.5v-7.2l12.2-32.6h-11.7v-9.3h23.8v8l-11.5,32.3h11.7v8.8L443.8,276.5L443.8,276.5z"/>
	</g>
</g>
</svg>
